# AST/ASF file generated using VICON BodyLanguage
# -----------------------------------------------
:version 1.10
:name VICON
:units
  mass 1.0
  length 0.45
  angle deg
:documentation
   .ast/.asf automatically generated from VICON data using
   VICON BodyBuilder and BodyLanguage model FoxedUp or BRILLIANT.MOD
:root
   order TX TY TZ RX RY RZ
   axis XYZ
   position 0 0 0  
   orientation 0 0 0 
:bonedata
  begin
     id 1 
     name lhipjoint
     direction 0.653368 -0.678499 0.335782 
     length 2.51848 
     axis 0 0 0  XYZ
  end
  begin
     id 2 
     name lfemur
     direction 0.34202 -0.939693 0  
     length 6.57749  
     axis 0 0 20  XYZ
    dof rx ry rz
    limits (-160.0 20.0)
           (-70.0 70.0)
           (-60.0 70.0)
  end
  begin
     id 3 
     name ltibia
     direction 0.34202 -0.939693 0   
     length 7.94618   
     axis 0 0 20   XYZ
    dof rx
    limits (-10.0 170.0)
  end
  begin
     id 4 
     name lfoot
     direction 0.0811271 -0.222895 0.971461   
     length 2.31339   
     axis -90 7.62852e-016 20   XYZ
    dof rx rz
    limits (-45.0 90.0)
           (-70.0 20.0)
  end
  begin
     id 5 
     name ltoes
     direction 1.53568e-011 -4.21885e-011 1   
     length 1.15935   
     axis -90 7.62852e-016 20   XYZ
    dof rx
    limits (-90.0 20.0)
  end
  begin
     id 6 
     name rhipjoint
     direction -0.640058 -0.688614 0.340788   
     length 2.48149  
     axis 0 0 0  XYZ 
  end
  begin
     id 7 
     name rfemur
     direction -0.34202 -0.939693 0   
     length 6.57875   
     axis 0 0 -20   XYZ
    dof rx ry rz
    limits (-160.0 20.0)
           (-70.0 70.0)
           (-70.0 60.0)
  end
  begin
     id 8 
     name rtibia
     direction -0.34202 -0.939693 0   
     length 7.977   
     axis 0 0 -20   XYZ
    dof rx
    limits (-10.0 170.0)
 end
 begin
     id 9 
     name rfoot
     direction -0.0979793 -0.269196 0.958089   
     length 2.19857  
     axis -90 -7.62852e-016 -20   XYZ
    dof rx rz
    limits (-45.0 90.0)
           (-20.0 70.0)
  end
  begin
     id 10 
     name rtoes
     direction -1.53556e-011 -4.21868e-011 1   
     length 1.09838   
     axis -90 -7.62852e-016 -20   XYZ
    dof rx
    limits (-90.0 20.0)
  end
  begin
     id 11 
     name lowerback
     direction 0.0149039 0.998517 -0.0523597   
     length 2.10809   
     axis 0 0 0   XYZ
    dof rx ry rz
    limits (-20.0 45.0)
           (-30.0 30.0)
           (-30.0 30.0)
  end
  begin
     id 12 
     name upperback
     direction -0.00882659 0.999418 -0.0329624   
     length 2.1102   
     axis 0 0 0   XYZ
    dof rx ry rz
    limits (-20.0 45.0)
           (-30.0 30.0)
           (-30.0 30.0)
  end
  begin
     id 13 
     name thorax
     direction -0.0165585 0.999826 -0.0085833   
     length 2.11039   
     axis 0 0 0   XYZ
    dof rx ry rz
    limits (-20.0 45.0)
           (-30.0 30.0)
           (-30.0 30.0)
  end
  begin
     id 14 
     name lowerneck
     direction -0.0130877 0.999911 0.00260353   
     length 1.73253   
     axis 0 0 0   XYZ
    dof rx ry rz
    limits (-20.0 45.0)
           (-30.0 30.0)
           (-30.0 30.0)
  end
  begin
     id 15 
     name upperneck
     direction -0.0348454 0.928205 -0.370435   
     length 1.66692   
     axis 0 0 0   XYZ
    dof rx ry rz
    limits (-20.0 45.0)
           (-30.0 30.0)
           (-30.0 30.0)
  end
  begin
     id 16
     name head
     direction -0.00807754 0.992494 -0.122026  
     length 1.72765  
     axis 0 0 0   XYZ
    dof rx ry rz
    limits (-20.0 45.0)
           (-30.0 30.0)
           (-30.0 30.0)
  end
  begin
     id 17 
     name lclavicle
     direction 0.987582 0.144023 0.0627671  
     length 3.49235  
     axis 0 0 0   XYZ
    dof ry rz
    limits (-20.0 10.0)
           (0.0 20.0)
  end
  begin
     id 18 
     name lhumerus
     direction 1 -4.48958e-011 -1.45183e-018   
     length 5.41917   
     axis 180 -30 -90   XYZ
    dof rx ry rz
    limits (-60.0 90.0)
           (-90.0 90.0)
           (-90.0 90.0)
  end
  begin
     id 19
     name lradius
     direction 1 -4.48999e-011 5.75106e-027   
     length 2.44373   
     axis 180 -30 -90   XYZ
    dof rx
    limits (-10.0 170.0)
  end
  begin
     id 20
     name lwrist
     direction 1 -4.48987e-011 1.53461e-026   
     length 1.22186   
     axis -1.09697e-014 90 90   XYZ
    dof ry
    limits (-180.0 0.0)
 end
  begin
     id 21 
     name lhand
     direction 1 -4.48881e-011 3.06923e-026   
     length 0.727502   
     axis -1.95843e-014 90 90   XYZ
    dof rx rz
    limits (-90.0 90.0)
           (-45.0 45.0)
  end
  begin
     id 22 
     name lfingers
     direction 1 -4.48907e-011 6.13845e-026   
     length 0.586531   
     axis -3.91686e-014 90 90   XYZ
    dof rx
    limits (0.0 90.0)
  end
  begin
     id 23
     name lthumb
     direction 0.707107 -6.3487e-011 0.707107   
     length 0.842145   
     axis -90 45 2.85299e-015   XYZ
    dof rx rz
    limits (-45.0 45.0)
           (-45.0 45.0)
  end
  begin
     id 24 
     name rclavicle
     direction -0.980998 0.169556 0.0943023   
     length 3.29272  
     axis 0 0 0   XYZ 
    dof ry rz
    limits (-10.0 20.0)
           (-20.0 0.0)
  end
  begin
     id 25 
     name rhumerus
     direction -1 -1.83355e-005 2.45537e-005  
     length 5.58976   
     axis 180 30 90   XYZ
    dof rx ry rz
    limits (-90.0 60.0)
           (-90.0 90.0)
           (-90.0 90.0)
  end
  begin
     id 26 
     name rradius
     direction -1 -4.48967e-011 5.97228e-027   
     length 2.4806   
     axis 180 30 90   XYZ
    dof rx
    limits (-10.0 170.0)
  end
  begin
     id 27 
     name rwrist
     direction -1 -4.48963e-011 1.53461e-026   
     length 1.2403   
     axis -1.09697e-014 -90 -90   XYZ
    dof ry
    limits (-180.0 0.0)
  end
  begin
     id 28
     name rhand
     direction -1 -4.48881e-011 3.06923e-026   
     length 0.816009   
     axis -1.95843e-014 -90 -90   XYZ
    dof rx rz
    limits (-90.0 90.0)
           (-45.0 45.0)
  end
  begin
     id 29
     name rfingers
     direction -1 -4.49018e-011 6.13845e-026   
     length 0.657887   
     axis -3.91686e-014 -90 -90   XYZ
    dof rx
    limits (0.0 90.0)
  end
  begin
     id 30
     name rthumb
     direction -0.707107 -6.34872e-011 0.707107   
     length 0.944599   
     axis -90 -45 -2.85299e-015   XYZ
    dof rx rz
    limits (-45.0 45.0)
           (-45.0 45.0)
  end
:hierarchy
  begin
    root lhipjoint rhipjoint lowerback
    lhipjoint lfemur
    lfemur ltibia
    ltibia lfoot
    lfoot ltoes
    rhipjoint rfemur
    rfemur rtibia
    rtibia rfoot
    rfoot rtoes
    lowerback upperback
    upperback thorax
    thorax lowerneck lclavicle rclavicle
    lowerneck upperneck
    upperneck head
    lclavicle lhumerus
    lhumerus lradius
    lradius lwrist
    lwrist lhand lthumb
    lhand lfingers
    rclavicle rhumerus
    rhumerus rradius
    rradius rwrist
    rwrist rhand rthumb
    rhand rfingers
  end

#!OML:ASF F:\VICON\USERDATA\INSTALL\rory3\rory3.ASF
:FULLY-SPECIFIED
:DEGREES
93
root 6.11516 18.0878 14.3806 -167.834 -42.4502 182.747
lowerback -8.08695 5.8651 -0.143678
upperback -7.80498 7.28908 -1.48348
thorax -3.42818 3.40359 -1.07395
lowerneck -9.50633 -4.05144 -7.72284
upperneck 24.8215 -6.85895 6.81354
head 9.91713 -3.52331 2.84916
rclavicle 7.70788e-014 1.27222e-014
rhumerus 164.761 -40.4008 123.789
rradius 10.2341
rwrist 144.574
rhand 10.6153 15.0708
rfingers 7.12502
rthumb 35.7097 -11.3165
lclavicle 7.70788e-014 1.27222e-014
lhumerus -17.9046 27.1264 0.0360688
lradius 18.063
lwrist -38.2248
lhand 2.63311 31.9636
lfingers 7.12502
lthumb 28.1099 59.877
rfemur -19.2852 1.74669 23.7571
rtibia 21.009
rfoot -30.3702 -33.771
rtoes 41.17
lfemur -38.0788 -2.73802 -10.9274
ltibia 31.6515
lfoot -43.0009 15.9427
ltoes 48.5319
94
root 6.13024 18.0928 14.3137 -168.3 -42.0524 183.22
lowerback -7.73985 6.1684 0.328388
upperback -7.86706 7.67513 -1.5371
thorax -3.60885 3.57433 -1.40347
lowerneck -9.01183 -4.11226 -7.52652
upperneck 24.5579 -7.02792 6.89568
head 9.73722 -3.5897 2.83189
rclavicle -7.15128e-014 -4.57205e-014
rhumerus 162.53 -43.2822 125.096
rradius 9.71548
rwrist 140.766
rhand 11.9142 14.9789
rfingers 7.12502
rthumb 36.9395 -11.1011
lclavicle -7.15128e-014 -4.57205e-014
lhumerus -17.6476 27.856 -0.289469
lradius 17.9925
lwrist -38.8084
lhand 2.37463 31.47
lfingers 7.12502
lthumb 27.8628 59.4236
rfemur -18.8879 1.6839 24.3318
rtibia 20.7143
rfoot -29.6464 -33.6566
rtoes 41.4628
lfemur -38.7936 -3.2772 -10.3209
ltibia 31.6419
lfoot -44.4213 13.9378
ltoes 48.4244
95
root 6.13882 18.1039 14.2552 -168.625 -41.6043 183.573
lowerback -7.46921 6.3371 0.770389
upperback -7.82696 7.89566 -1.45447
thorax -3.66193 3.67046 -1.57243
lowerneck -8.93652 -4.07603 -7.67029
upperneck 24.3818 -6.94217 6.94755
head 9.66018 -3.5549 2.88578
rclavicle -1.08288e-013 -1.70955e-014
rhumerus 158.845 -46.31 127.603
rradius 9.84926
rwrist 137.013
rhand 13.1695 14.9992
rfingers 7.12502
rthumb 38.1259 -10.7657
lclavicle -1.08288e-013 -1.70955e-014
lhumerus -18.0201 28.7213 -0.844674
lradius 18.0322
lwrist -39.3175
lhand 1.77036 31.5131
lfingers 7.12502
lthumb 27.2849 59.559
rfemur -18.6105 1.34433 24.784
rtibia 20.4676
rfoot -27.3782 -34.4085
rtoes 39.7071
lfemur -39.4678 -3.91433 -9.74522
ltibia 31.6019
lfoot -45.1655 11.5306
ltoes 49.032
96
root 6.14089 18.1152 14.2013 -168.958 -41.1288 183.835
lowerback -7.1704 6.572 1.16289
upperback -7.73792 8.21402 -1.43748
thorax -3.67079 3.8195 -1.77723
lowerneck -9.24477 -4.11179 -7.88235
upperneck 24.6012 -7.00951 7.17554
head 9.8197 -3.57533 2.98942
rclavicle 3.71727e-014 -3.57812e-014
rhumerus 155.119 -48.9663 130.712
rradius 9.36987
rwrist 133.188
rhand 14.0047 14.5832
rfingers 7.12502
rthumb 38.914 -10.9614
lclavicle 3.71727e-014 -3.57812e-014
lhumerus -17.9625 27.9133 -0.848039
lradius 18.2184
lwrist -38.3166
lhand 1.09854 31.9229
lfingers 7.12502
lthumb 26.6422 60.0682
rfemur -18.2498 1.07521 25.1118
rtibia 20.274
rfoot -26.0823 -34.4609
rtoes 38.9819
lfemur -39.9735 -4.15588 -9.39483
ltibia 31.5552
lfoot -44.1284 10.3157
ltoes 51.282
97
root 6.13933 18.1203 14.1477 -169.386 -40.4996 184.229
lowerback -6.92085 6.86814 1.62917
upperback -7.62093 8.61429 -1.38218
thorax -3.61164 4.00904 -1.97078
lowerneck -9.38583 -4.22925 -8.02278
upperneck 24.5081 -7.12116 7.19763
head 9.83047 -3.62716 3.00437
rclavicle -5.48646e-014 -2.06736e-014
rhumerus 151.057 -51.5001 134.162
rradius 8.9481
rwrist 129.639
rhand 14.5949 14.0654
rfingers 7.12502
rthumb 39.4702 -11.3183
lclavicle -5.48646e-014 -2.06736e-014
lhumerus -18.0068 28.668 -1.14303
lradius 18.2071
lwrist -39.0186
lhand 0.776754 31.8676
lfingers 7.12502
lthumb 26.3342 60.0594
rfemur -17.9219 1.01651 25.5097
rtibia 20.174
rfoot -24.3969 -34.6845
rtoes 37.4927
lfemur -40.3978 -4.44033 -8.89339
ltibia 31.4985
lfoot -44.8522 8.41676
ltoes 51.2324
98
root 6.13767 18.1178 14.0867 -169.893 -39.832 184.759
lowerback -6.67741 7.21223 2.15089
upperback -7.59444 9.06981 -1.33471
thorax -3.62793 4.21801 -2.20464
lowerneck -8.91974 -4.3106 -7.76377
upperneck 24.039 -7.22718 7.0316
head 9.56769 -3.67601 2.89594
rclavicle 8.47817e-014 2.50469e-014
rhumerus 146.931 -53.8617 137.946
rradius 8.45069
rwrist 126.494
rhand 15.2684 13.8558
rfingers 7.12502
rthumb 40.1042 -11.3387
lclavicle 8.47817e-014 2.50469e-014
lhumerus -18.2951 32.9477 -2.26725
lradius 17.8425
lwrist -43.4471
lhand 0.473197 30.9591
lfingers 7.12502
lthumb 26.0435 59.1939
rfemur -17.614 0.596866 26.09
rtibia 20.1013
rfoot -21.6737 -34.9813
rtoes 35.1077
lfemur -40.7725 -4.786 -8.22347
ltibia 31.442
lfoot -44.8834 6.54903
ltoes 52.0013
99
root 6.13751 18.1185 14.0266 -170.147 -39.0849 184.935
lowerback -6.4162 7.63971 2.38447
upperback -7.62537 9.64233 -1.48561
thorax -3.71387 4.49068 -2.4884
lowerneck -7.96691 -4.42393 -6.60737
upperneck 23.1786 -7.38538 6.28547
head 9.02583 -3.73988 2.44357
rclavicle -3.58309e-014 -5.56597e-015
rhumerus 142.935 -55.8226 141.926
rradius 8.00197
rwrist 123.035
rhand 16.025 14.2169
rfingers 7.12502
rthumb 40.8156 -10.7578
lclavicle -3.58309e-014 -5.56597e-015
lhumerus -18.0256 34.8563 -2.71845
lradius 17.7475
lwrist -45.5492
lhand 0.195996 30.482
lfingers 7.12502
lthumb 25.7781 58.7557
rfemur -17.3743 0.0133735 26.3717
rtibia 20.0622
rfoot -18.662 -35.15
rtoes 32.5841
lfemur -41.1131 -4.69587 -8.03574
ltibia 31.3723
lfoot -44.0347 6.10719
ltoes 52.2375
100
root 6.13879 18.1209 13.977 -170.43 -38.2472 185.161
lowerback -5.98751 8.23995 2.72028
upperback -7.71009 10.4495 -1.71743
thorax -3.89534 4.87151 -2.92567
lowerneck -6.81837 -4.75964 -5.39284
upperneck 22.1651 -7.81395 5.42167
head 8.4128 -3.94377 1.93526
rclavicle 2.62893e-014 2.38542e-015
rhumerus 138.413 -57.1627 146.551
rradius 8.22598
rwrist 118.861
rhand 17.3672 14.2571
rfingers 7.12502
rthumb 42.075 -10.3077
lclavicle 2.62893e-014 2.38542e-015
lhumerus -16.7168 32.4047 -1.7117
lradius 17.9051
lwrist -43.1515
lhand 0.0869728 31.1494
lfingers 7.12502
lthumb 25.6737 59.4382
rfemur -17.1715 0.247813 26.6049
rtibia 20.1122
rfoot -17.5897 -35.0683
rtoes 31.8363
lfemur -41.4223 -4.83633 -7.64837
ltibia 31.3012
lfoot -43.2837 6.68703
ltoes 52.4153
101
root 6.13429 18.124 13.9233 -170.758 -37.4387 185.343
lowerback -5.52435 8.85891 2.95522
upperback -7.79502 11.2896 -1.973
thorax -4.09316 5.27247 -3.34252
lowerneck -6.04226 -5.13237 -4.514
upperneck 21.4752 -8.33152 4.96681
head 8.0134 -4.17663 1.61581
rclavicle -2.18166e-014 -3.29983e-014
rhumerus 133.945 -58.327 151.119
rradius 8.55183
rwrist 114.723
rhand 18.2073 13.8806
rfingers 7.12502
rthumb 42.8616 -10.4141
lclavicle -2.18166e-014 -3.29983e-014
lhumerus -15.1007 25.6364 -0.081509
lradius 18.4854
lwrist -36.5177
lhand -0.212478 32.6972
lfingers 7.12502
lthumb 25.3868 61.027
rfemur -16.839 0.32974 26.8163
rtibia 20.2124
rfoot -16.414 -34.8142
rtoes 31.0055
lfemur -41.546 -5.43384 -7.08202
ltibia 31.2233
lfoot -42.8041 7.51148
ltoes 52.2422
102
root 6.12279 18.1229 13.8611 -170.962 -36.499 185.481
lowerback -5.38329 9.02395 3.17695
upperback -7.75006 11.5161 -1.93585
thorax -4.07297 5.37904 -3.42575
lowerneck -5.73289 -4.95236 -4.40915
upperneck 21.1188 -8.0607 4.92211
head 7.81752 -4.05022 1.6227
rclavicle 3.57315e-014 8.34896e-015
rhumerus 127.122 -60.027 157.519
rradius 7.95645
rwrist 110.638
rhand 17.1515 13.0277
rfingers 7.12502
rthumb 41.8729 -11.6048
lclavicle 3.57315e-014 8.34896e-015
lhumerus -15.6573 17.9937 0.113969
lradius 19.6515
lwrist -28.9559
lhand -0.547154 34.505
lfingers 7.12502
lthumb 25.0662 62.88
rfemur -16.6032 -0.384561 27.0687
rtibia 20.31
rfoot -12.5458 -34.5826
rtoes 26.4236
lfemur -41.6617 -5.81515 -6.60215
ltibia 31.1568
lfoot -42.3789 7.8812
ltoes 52.2295
